<svg width="24px" height="24px" viewBox="0 0 24 24" version="1.1" xmlns="http://www.w3.org/2000/svg" xmlns:xlink="http://www.w3.org/1999/xlink">
    <defs>
        <path d="M21.3333333,0 L2.66666667,0 C1.2,0 0,1.2 0,2.66666667 L0,21.3333333 C0,22.8 1.2,24 2.66666667,24 L21.3333333,24 C22.8,24 24,22.8 24,21.3333333 L24,2.66666667 C24,1.2 22.8,0 21.3333333,0 Z M21.3333333,21.3333333 L2.66666667,21.3333333 L2.66666667,2.66666667 L21.3333333,2.66666667 L21.3333333,21.3333333 Z M10.9466667,17.1066667 L14.6133333,12.3866667 L19.3333333,18.6666667 L4.66666667,18.6666667 L8.33333333,13.96 L10.9466667,17.1066667 Z" id="path-1"></path>
    </defs>
    <g id="Page-1" stroke="none" stroke-width="1" fill="none" fill-rule="evenodd">
        <g id="image_upload_24px">
            <mask id="mask-2" fill="white">
                <use xlink:href="#path-1"></use>
            </mask>
            <g id="Shape"></g>
            <rect id="Rectangle-path" fill="#A2AAB2" fill-rule="nonzero" mask="url(#mask-2)" x="-4" y="-4" width="32" height="32"></rect>
        </g>
    </g>
</svg>