<svg width="104" height="104" viewBox="0 0 104 104" fill="none" xmlns="http://www.w3.org/2000/svg">
<path d="M52 104C80.7188 104 104 80.7188 104 52C104 23.2812 80.7188 0 52 0C23.2812 0 0 23.2812 0 52C0 80.7188 23.2812 104 52 104Z" fill="#F5F5F5"/>
<path d="M29.06 56.5302H18.5C12.67 56.5302 7.94 51.8002 7.94 45.9702C7.94 40.1402 12.67 35.4102 18.5 35.4102H29.06V56.5302V56.5302Z" stroke="black" stroke-width="2" stroke-miterlimit="10" stroke-linecap="round" stroke-linejoin="round"/>
<path d="M29.06 56.5304C46.98 56.5304 63.18 61.5604 72.11 70.6604C74.05 72.6404 77.34 71.3704 77.34 68.5804V23.3604C77.34 20.5604 74.05 19.3004 72.11 21.2804C63.18 30.3804 46.98 35.4104 29.06 35.4104V56.5304V56.5304Z" stroke="black" stroke-width="2" stroke-miterlimit="10" stroke-linecap="round" stroke-linejoin="round"/>
<path d="M45.72 40.0707C49.11 39.4807 52.34 38.7207 55.39 37.7807C58.44 36.8407 61.31 35.7307 63.97 34.4707" stroke="black" stroke-width="2" stroke-miterlimit="10" stroke-linecap="round" stroke-linejoin="round"/>
<path d="M36.09 56.8003L44.15 83.6903H32.08L18.2 56.5303" stroke="black" stroke-width="2" stroke-miterlimit="10" stroke-linecap="round" stroke-linejoin="round"/>
<path d="M63.97 71.4199C63.97 76.7899 68.06 81.4099 73.97 83.6099C79.88 81.4199 83.97 76.7899 83.97 71.4199V66.6099V62.6099C78.44 59.9399 69.5 59.9399 63.97 62.6099V66.6099V71.4199Z" fill="#F5F5F5" stroke="black" stroke-width="2" stroke-miterlimit="10"/>
<path d="M77.74 66.4404C77.59 66.0804 77.38 65.7603 77.11 65.4903C76.84 65.2203 76.53 65.0003 76.18 64.8503C75.83 64.7003 75.44 64.6104 75.04 64.6104H74.5H73.97H73.44H72.9C72.5 64.6104 72.11 64.6903 71.76 64.8503C71.41 65.0003 71.09 65.2203 70.83 65.4903C70.56 65.7603 70.35 66.0904 70.2 66.4404C70.05 66.8004 69.97 67.1903 69.97 67.6003C69.97 68.0103 70.05 68.4104 70.2 68.7604C70.35 69.1204 70.56 69.4404 70.83 69.7104C71.1 69.9804 71.41 70.2003 71.76 70.3503C72.11 70.5003 72.5 70.5903 72.9 70.5903H73.43H73.96H74.49H75.02C75.42 70.5903 75.81 70.6704 76.16 70.8304C76.51 70.9804 76.83 71.2004 77.09 71.4704C77.36 71.7404 77.57 72.0703 77.72 72.4203C77.87 72.7803 77.95 73.1704 77.95 73.5804C77.95 73.9904 77.87 74.3903 77.72 74.7403C77.57 75.1003 77.36 75.4204 77.09 75.6904C76.82 75.9604 76.51 76.1804 76.16 76.3304C75.81 76.4804 75.42 76.5704 75.02 76.5704H74.5H73.97H73.44H72.9C72.5 76.5704 72.11 76.4904 71.76 76.3304C71.41 76.1804 71.09 75.9604 70.83 75.6904C70.56 75.4204 70.35 75.0903 70.2 74.7403" fill="#EEEEEE"/>
<path d="M77.74 66.4404C77.59 66.0804 77.38 65.7603 77.11 65.4903C76.84 65.2203 76.53 65.0003 76.18 64.8503C75.83 64.7003 75.44 64.6104 75.04 64.6104H74.5H73.97H73.44H72.9C72.5 64.6104 72.11 64.6903 71.76 64.8503C71.41 65.0003 71.09 65.2203 70.83 65.4903C70.56 65.7603 70.35 66.0904 70.2 66.4404C70.05 66.8004 69.97 67.1903 69.97 67.6003C69.97 68.0103 70.05 68.4104 70.2 68.7604C70.35 69.1204 70.56 69.4404 70.83 69.7104C71.1 69.9804 71.41 70.2003 71.76 70.3503C72.11 70.5003 72.5 70.5903 72.9 70.5903H73.43H73.96H74.49H75.02C75.42 70.5903 75.81 70.6704 76.16 70.8304C76.51 70.9804 76.83 71.2004 77.09 71.4704C77.36 71.7404 77.57 72.0703 77.72 72.4203C77.87 72.7803 77.95 73.1704 77.95 73.5804C77.95 73.9904 77.87 74.3903 77.72 74.7403C77.57 75.1003 77.36 75.4204 77.09 75.6904C76.82 75.9604 76.51 76.1804 76.16 76.3304C75.81 76.4804 75.42 76.5704 75.02 76.5704H74.5H73.97H73.44H72.9C72.5 76.5704 72.11 76.4904 71.76 76.3304C71.41 76.1804 71.09 75.9604 70.83 75.6904C70.56 75.4204 70.35 75.0903 70.2 74.7403" stroke="black" stroke-width="2" stroke-miterlimit="10"/>
<path d="M73.97 63.6104V77.6104" stroke="black" stroke-width="2" stroke-miterlimit="10" stroke-linecap="round"/>
<path d="M90.29 60.2601C93.88 56.1201 96.06 50.7301 96.06 44.8201C96.06 38.3001 93.42 32.3901 89.14 28.1201" stroke="black" stroke-width="2" stroke-miterlimit="10" stroke-linecap="round"/>
<path d="M84 33.2705C86.96 36.2305 88.79 40.3105 88.79 44.8305C88.79 48.9205 87.28 52.6505 84.8 55.5105" stroke="black" stroke-width="2" stroke-miterlimit="10" stroke-linecap="round"/>
</svg>
