<svg width="198" height="54" viewBox="0 0 198 54" fill="none" xmlns="http://www.w3.org/2000/svg">
<g clip-path="url(#clip0)">
<path d="M26.8818 0C12.0335 0 0 12.0878 0 26.9969C0 41.906 12.0335 53.9938 26.8818 53.9938C41.724 53.9938 53.7637 41.906 53.7637 26.9969C53.7575 12.0878 41.724 0 26.8818 0ZM25.5175 31.5221H12.1073L25.5175 5.35246V31.5221ZM28.2401 48.6537V22.4841H41.6441L28.2401 48.6537Z" fill="#2CB34A"/>
<path d="M69.4048 44.8509C68.6428 43.6841 67.9175 42.4741 67.1985 41.3443C71.0089 39.0477 72.2504 37.1525 72.2504 33.6459V13.4213H67.7946V9.55054H77.3022V32.6396C77.3084 38.523 75.6613 41.7888 69.4048 44.8509Z" fill="#010101"/>
<path d="M109.205 31.0285C109.205 32.9608 110.606 33.2078 111.534 33.2078C112.462 33.2078 113.802 32.8867 114.804 32.6028V36.2328C113.36 36.7143 111.854 37.0415 109.807 37.0415C107.318 37.0415 104.473 36.1155 104.473 31.8002V21.157H101.867V17.4899H104.473V12.051H109.205V17.4529H115.16V21.1632H109.205V31.0285V31.0285Z" fill="#010101"/>
<path d="M119.069 46.6658V17.4217H123.605V19.1811C125.412 17.7736 127.415 16.9216 129.861 16.9216C134.114 16.9216 137.482 19.9035 137.482 26.3486C137.482 32.7568 133.788 36.9857 127.692 36.9857C126.204 36.9857 125.043 36.7819 123.801 36.5412V46.6534H119.069V46.6658ZM128.577 20.8357C127.175 20.8357 125.448 21.4777 123.801 22.9285V32.8802C124.846 33.084 125.885 33.2445 127.329 33.2445C130.66 33.2445 132.584 31.1084 132.584 26.719C132.59 22.6075 131.226 20.8357 128.577 20.8357Z" fill="#010101"/>
<path d="M156.055 36.5533H151.642V34.4605H151.519C149.952 35.6705 148.071 36.9175 145.263 36.9175C142.774 36.9175 140.125 35.1025 140.125 31.4786C140.125 26.5892 144.298 25.6693 147.186 25.2681L151.316 24.7063V24.1506C151.316 21.5701 150.272 20.7243 147.868 20.7243C146.707 20.7243 143.935 21.0886 141.649 22.0146L141.249 18.187C143.296 17.4585 146.105 16.9399 148.471 16.9399C153.086 16.9399 156.055 18.792 156.055 24.3173V36.5533ZM151.322 27.6387L147.432 28.2437C146.271 28.4042 145.023 29.108 145.023 30.8798C145.023 32.4417 145.908 33.3245 147.186 33.3245C148.551 33.3245 150.075 32.4788 151.316 31.5898V27.6387H151.322Z" fill="#010101"/>
<path d="M175.531 35.9487C173.607 36.5907 171.862 37.0352 169.612 37.0352C162.514 37.0352 159.705 32.9668 159.705 27.0402C159.705 20.7926 163.596 16.928 169.895 16.928C172.261 16.928 173.687 17.3293 175.291 17.854V21.8853C173.927 21.3606 171.905 20.7988 169.975 20.7988C167.086 20.7988 164.64 22.3298 164.64 26.8056C164.64 31.7198 167.086 33.1706 170.215 33.1706C171.702 33.1706 173.361 32.8496 175.531 32.0038V35.9487V35.9487Z" fill="#010101"/>
<path d="M184.479 25.6697C184.879 25.2252 185.205 24.7436 191.141 17.4465H197.281L189.58 26.5154L198.006 36.5475H191.83L184.485 27.4785V36.5475H179.753V9.55054H184.485V25.6697H184.479Z" fill="#010101"/>
<path d="M98.3147 35.9487C95.8502 36.708 93.7361 37.0352 91.2839 37.0352C85.2302 37.0352 81.5059 34.0102 81.5059 26.8797C81.5059 21.6816 84.6771 16.928 90.7738 16.928C96.8335 16.928 98.96 21.1569 98.96 25.1882C98.96 26.5155 98.8801 27.244 98.8002 28.0095H86.6069C86.7298 32.2013 89.0898 33.1706 92.6175 33.1706C94.5412 33.1706 96.3357 32.7323 98.3208 31.9976V35.9487H98.3147ZM94.0249 24.8672C94.0249 22.5274 93.2628 20.5148 90.7369 20.5148C88.3707 20.5148 86.9265 22.2064 86.6438 24.8672H94.0249Z" fill="#010101"/>
</g>
<defs>
<clipPath id="clip0">
<rect width="198" height="54" fill="white"/>
</clipPath>
</defs>
</svg>
