<svg id="Layer_1" data-name="Layer 1" xmlns="http://www.w3.org/2000/svg" viewBox="0 0 620 128.96"><defs><style>.cls-1{fill:#ddd;}.cls-2{fill:#231f20;}</style></defs><title>np-setup-graphic</title><path class="cls-1" d="M327,102.54H307a1.5,1.5,0,0,1,0-3h20a1.5,1.5,0,0,1,0,3Zm-40,0H267a1.5,1.5,0,0,1,0-3h20a1.5,1.5,0,0,1,0,3Zm-40,0H227a1.5,1.5,0,0,1,0-3h20a1.5,1.5,0,0,1,0,3Zm-40,0H187a1.5,1.5,0,0,1,0-3h20a1.5,1.5,0,0,1,0,3Z" transform="translate(209.7 -35.04)"/><path class="cls-1" d="M14.59,102.54H-4.2A1.5,1.5,0,0,1-5.7,101a1.5,1.5,0,0,1,1.5-1.5H14.59a1.5,1.5,0,1,1,0,3Zm-38.79,0h-20a1.5,1.5,0,0,1-1.5-1.5,1.5,1.5,0,0,1,1.5-1.5h20a1.5,1.5,0,0,1,1.5,1.5A1.51,1.51,0,0,1-24.2,102.54Zm-40,0h-20a1.5,1.5,0,0,1-1.5-1.5,1.5,1.5,0,0,1,1.5-1.5h20a1.5,1.5,0,0,1,1.5,1.5A1.51,1.51,0,0,1-64.2,102.54Zm-40,0h-20a1.5,1.5,0,0,1-1.5-1.5,1.5,1.5,0,0,1,1.5-1.5h20a1.5,1.5,0,0,1,1.5,1.5A1.51,1.51,0,0,1-104.2,102.54Z" transform="translate(209.7 -35.04)"/><path d="M166,52.66H35.59a2.5,2.5,0,0,0-2.5,2.5v88.27a2.5,2.5,0,0,0,2.5,2.5H166a2.5,2.5,0,0,0,2.5-2.5V55.16A2.5,2.5,0,0,0,166,52.66Zm-.5,3V62.5H36.09V55.66ZM36.09,142.93V65.5H165.5v77.43Z" transform="translate(209.7 -35.04)"/><path d="M40.3,60.55A1.55,1.55,0,1,0,38.75,59,1.55,1.55,0,0,0,40.3,60.55Z" transform="translate(209.7 -35.04)"/><path d="M45.17,60.55A1.55,1.55,0,1,0,43.62,59,1.54,1.54,0,0,0,45.17,60.55Z" transform="translate(209.7 -35.04)"/><path d="M50,60.55A1.55,1.55,0,1,0,48.49,59,1.54,1.54,0,0,0,50,60.55Z" transform="translate(209.7 -35.04)"/><path d="M376,98.51a14.16,14.16,0,1,0-14.51,0C351,101.39,343.3,110.34,343.3,120.9v3.45a1.5,1.5,0,0,0,3,0V120.9c0-11.23,10.05-20.36,22.41-20.36s22.41,9.13,22.41,20.36v3.45a1.5,1.5,0,1,0,3,0V120.9C394.12,110.34,386.45,101.39,376,98.51ZM357.55,86.38a11.16,11.16,0,1,1,11.16,11.16A11.16,11.16,0,0,1,357.55,86.38Z" transform="translate(209.7 -35.04)"/><path d="M396.91,98.55a11.33,11.33,0,0,0-6.4-20.7,1.5,1.5,0,0,0,0,3,8.35,8.35,0,1,1,0,16.69,1.5,1.5,0,0,0,0,3h0c9.26,0,16.79,6.95,16.79,15.5v2.69a1.5,1.5,0,0,0,3,0V116C410.3,107.94,404.69,101.05,396.91,98.55Z" transform="translate(209.7 -35.04)"/><path d="M-143.14,99.48l-19.77-19.76a1.38,1.38,0,0,0-.59-.35,26.35,26.35,0,0,0,6.85-17.8,26.35,26.35,0,0,0-7.77-18.76A26.35,26.35,0,0,0-183.18,35a26.35,26.35,0,0,0-18.75,7.77,26.35,26.35,0,0,0-7.77,18.76,26.37,26.37,0,0,0,7.77,18.76,26.35,26.35,0,0,0,18.75,7.77,26.32,26.32,0,0,0,17.8-6.86,1.53,1.53,0,0,0,.35.6l19.77,19.76a1.49,1.49,0,0,0,1.06.44,1.53,1.53,0,0,0,1.06-.44A1.51,1.51,0,0,0-143.14,99.48Zm-56.67-54.55A23.37,23.37,0,0,1-183.18,38a23.38,23.38,0,0,1,16.64,6.89c.55.55,1.07,1.13,1.56,1.72a1.44,1.44,0,0,0-.42.65l-6.38,20.2-7.69-16.84a1.51,1.51,0,0,0-1.36-.88,1.51,1.51,0,0,0-1.37.88l-8.06,17.64-5.37-10a1.46,1.46,0,0,0-1.17-.78,1.52,1.52,0,0,0-1.31.53l-5.16,6.25h-3.27a24.92,24.92,0,0,1-.16-2.75A23.36,23.36,0,0,1-199.81,44.93Zm16.63,40.17a23.37,23.37,0,0,1-16.63-6.89A23.34,23.34,0,0,1-206,67.32h3.44a1.5,1.5,0,0,0,1.15-.54l4.2-5.08,5.74,10.68a1.51,1.51,0,0,0,1.37.79,1.51,1.51,0,0,0,1.32-.88l7.95-17.4,7.94,17.4a1.5,1.5,0,0,0,1.37.88h.09a1.5,1.5,0,0,0,1.34-1l7.14-22.6a23.46,23.46,0,0,1,3.3,12,23.37,23.37,0,0,1-6.89,16.64A23.38,23.38,0,0,1-183.18,85.1Z" transform="translate(209.7 -35.04)"/><path class="cls-2" d="M-73.65,119.81a1.52,1.52,0,0,0-1.32-.24l-32.15,9.31H-117.9a1.5,1.5,0,0,0-1.5,1.5v18.8a1.5,1.5,0,0,0,1.5,1.5h2l4,12.28a1.5,1.5,0,0,0,1.43,1h7.41a1.49,1.49,0,0,0,1.21-.62,1.47,1.47,0,0,0,.22-1.34l-3.48-10.79L-75,160a1.52,1.52,0,0,0,.42.06,1.5,1.5,0,0,0,.9-.3,1.51,1.51,0,0,0,.6-1.2V121A1.54,1.54,0,0,0-73.65,119.81Zm-42.75,12.07h8v15.8h-8Zm7,29.12-3.32-10.32h4.25l3.33,10.32ZM-76,156.56l-29.36-8.5V131.51L-76,123Z" transform="translate(209.7 -35.04)"/><path class="cls-2" d="M-64.25,133.65a1.56,1.56,0,0,0,.63-.14l9.29-4.3a1.5,1.5,0,0,0,.73-2,1.49,1.49,0,0,0-2-.74l-9.29,4.3a1.51,1.51,0,0,0-.73,2A1.51,1.51,0,0,0-64.25,133.65Z" transform="translate(209.7 -35.04)"/><path class="cls-2" d="M-54.33,150.36l-9.29-4.3a1.5,1.5,0,0,0-2,.73,1.5,1.5,0,0,0,.73,2l9.29,4.3a1.44,1.44,0,0,0,.63.14,1.49,1.49,0,0,0,1.36-.87A1.5,1.5,0,0,0-54.33,150.36Z" transform="translate(209.7 -35.04)"/><path class="cls-2" d="M-53.9,138.28H-64.25a1.5,1.5,0,0,0-1.5,1.5,1.5,1.5,0,0,0,1.5,1.5H-53.9a1.5,1.5,0,0,0,1.5-1.5A1.5,1.5,0,0,0-53.9,138.28Z" transform="translate(209.7 -35.04)"/><path d="M258.74,92.93a1.68,1.68,0,0,1-.44-.07,1.5,1.5,0,0,1-1.05-1.58l2.22-22.22H249.19a1.5,1.5,0,0,1-1.43-1.94l9.55-31A1.49,1.49,0,0,1,258.74,35h11.93a1.5,1.5,0,0,1,1.42,2l-6.18,18h11.44a1.51,1.51,0,0,1,1.33,2.21L260.06,92.13A1.49,1.49,0,0,1,258.74,92.93Zm-7.51-26.87h9.9a1.51,1.51,0,0,1,1.49,1.65L261,84l13.86-26h-11a1.48,1.48,0,0,1-1.22-.63,1.5,1.5,0,0,1-.2-1.36l6.18-18h-8.72Z" transform="translate(209.7 -35.04)"/><path d="M313.19,134.7H277.75a1.5,1.5,0,0,1,0-3h35.44a1.5,1.5,0,0,1,0,3Z" transform="translate(209.7 -35.04)"/><path d="M302.35,145.54a1.53,1.53,0,0,1-1.06-.44,1.51,1.51,0,0,1,0-2.12l9.78-9.78-9.78-9.78a1.5,1.5,0,0,1,2.13-2.12l10.83,10.84a1.5,1.5,0,0,1,0,2.12L303.42,145.1A1.53,1.53,0,0,1,302.35,145.54Z" transform="translate(209.7 -35.04)"/><path d="M284.63,153.16H249.19a1.5,1.5,0,0,1,0-3h35.44a1.5,1.5,0,0,1,0,3Z" transform="translate(209.7 -35.04)"/><path d="M260,164a1.51,1.51,0,0,1-1.06-.44l-10.84-10.84a1.51,1.51,0,0,1,0-2.12L259,139.76a1.5,1.5,0,0,1,2.12,2.12l-9.78,9.78,9.78,9.78A1.5,1.5,0,0,1,260,164Z" transform="translate(209.7 -35.04)"/><rect class="cls-1" x="253.92" y="38.45" width="113.53" height="11.95"/><rect class="cls-1" x="253.92" y="56.38" width="72.47" height="43.85"/><rect class="cls-1" x="334.23" y="56.38" width="33.23" height="43.85"/><path d="M-.82,35a6,6,0,0,0-6,6,5.94,5.94,0,0,0,1.61,4.06l-11,17.32A5.84,5.84,0,0,0-18,62.09a6,6,0,0,0-4.59,2.16l-12.56-5.86A5.67,5.67,0,0,0-35,57.3a6,6,0,0,0-6-6,6,6,0,0,0-6,6,5.93,5.93,0,0,0,1.19,3.56l-7.68,9.6a5.88,5.88,0,0,0-2.44-.53,6,6,0,0,0-6,6,6,6,0,0,0,6,6,6,6,0,0,0,6-6,5.91,5.91,0,0,0-1.19-3.56l7.69-9.59a5.8,5.8,0,0,0,2.43.53,5.94,5.94,0,0,0,4.59-2.17L-23.86,67a6.38,6.38,0,0,0-.1,1.08,6,6,0,0,0,6,6,6,6,0,0,0,6-6A6,6,0,0,0-13.64,64l11-17.31A6.15,6.15,0,0,0-.82,47a6,6,0,0,0,6-6A6,6,0,0,0-.82,35ZM-55.9,78.86a3,3,0,0,1-3-3,3,3,0,0,1,3-3,3,3,0,0,1,3,3A3,3,0,0,1-55.9,78.86ZM-41,60.27a3,3,0,0,1-3-3,3,3,0,0,1,3-3,3,3,0,0,1,3,3A3,3,0,0,1-41,60.27ZM-18,71a3,3,0,0,1-3-3,3,3,0,0,1,3-3,3,3,0,0,1,3,3A3,3,0,0,1-18,71ZM-.82,44a3,3,0,0,1-3-3,3,3,0,0,1,3-3,3,3,0,0,1,3,3A3,3,0,0,1-.82,44Z" transform="translate(209.7 -35.04)"/></svg>