<svg width="104" height="104" viewBox="0 0 104 104" fill="none"
    xmlns="http://www.w3.org/2000/svg">
    <path d="M52 104C80.7188 104 104 80.7188 104 52C104 23.2812 80.7188 0 52 0C23.2812 0 0 23.2812 0 52C0 80.7188 23.2812 104 52 104Z" fill="#F5F5F5"/>
    <path d="M30.99 40.6299H20V59.4299H30.99V40.6299Z" stroke="#231F20" stroke-width="3" stroke-miterlimit="10" stroke-linecap="round" stroke-linejoin="round"/>
    <path d="M30.99 40.6298L63.34 31.2598V50.0298V68.7998L30.99 59.4298V40.6298Z" stroke="#231F20" stroke-width="3" stroke-miterlimit="10" stroke-linecap="round" stroke-linejoin="round"/>
    <path d="M23.0801 59.4297L27.3801 72.7397H34.7901L30.4901 59.4297" stroke="#231F20" stroke-width="3" stroke-miterlimit="10" stroke-linecap="round" stroke-linejoin="round"/>
    <path d="M73.6499 42.3898L82.9399 38.0898" stroke="#231F20" stroke-width="3" stroke-miterlimit="10" stroke-linecap="round" stroke-linejoin="round"/>
    <path d="M73.6499 57.6602L82.9399 61.9702" stroke="#231F20" stroke-width="3" stroke-miterlimit="10" stroke-linecap="round" stroke-linejoin="round"/>
    <path d="M73.6499 50.0293H83.9999" stroke="#231F20" stroke-width="3" stroke-miterlimit="10" stroke-linecap="round" stroke-linejoin="round"/>
</svg>
