<svg width="104" height="104" viewBox="0 0 104 104" fill="none"
    xmlns="http://www.w3.org/2000/svg">
    <path d="M52 104C80.7188 104 104 80.7188 104 52C104 23.2812 80.7188 0 52 0C23.2812 0 0 23.2812 0 52C0 80.7188 23.2812 104 52 104Z" fill="#F5F5F5"/>
    <path d="M24.46 69.4498L39.35 50.8598L62.36 61.5998L79.54 34.5498" stroke="black" stroke-width="3" stroke-miterlimit="10" stroke-linecap="round" stroke-linejoin="round"/>
    <path d="M24.46 73.9102C26.9232 73.9102 28.92 71.9134 28.92 69.4502C28.92 66.987 26.9232 64.9902 24.46 64.9902C21.9968 64.9902 20 66.987 20 69.4502C20 71.9134 21.9968 73.9102 24.46 73.9102Z" fill="#F5F5F5" stroke="black" stroke-width="3" stroke-miterlimit="10" stroke-linecap="round" stroke-linejoin="round"/>
    <path d="M39.3499 55.3194C41.8131 55.3194 43.8099 53.3226 43.8099 50.8594C43.8099 48.3962 41.8131 46.3994 39.3499 46.3994C36.8867 46.3994 34.8899 48.3962 34.8899 50.8594C34.8899 53.3226 36.8867 55.3194 39.3499 55.3194Z" fill="#F5F5F5" stroke="black" stroke-width="3" stroke-miterlimit="10" stroke-linecap="round" stroke-linejoin="round"/>
    <path d="M62.3599 66.0596C64.8231 66.0596 66.8199 64.0628 66.8199 61.5996C66.8199 59.1365 64.8231 57.1396 62.3599 57.1396C59.8967 57.1396 57.8999 59.1365 57.8999 61.5996C57.8999 64.0628 59.8967 66.0596 62.3599 66.0596Z" fill="#F5F5F5" stroke="black" stroke-width="3" stroke-miterlimit="10" stroke-linecap="round" stroke-linejoin="round"/>
    <path d="M79.5401 39.0098C82.0033 39.0098 84.0001 37.013 84.0001 34.5498C84.0001 32.0867 82.0033 30.0898 79.5401 30.0898C77.0769 30.0898 75.0801 32.0867 75.0801 34.5498C75.0801 37.013 77.0769 39.0098 79.5401 39.0098Z" fill="#F5F5F5" stroke="black" stroke-width="3" stroke-miterlimit="10" stroke-linecap="round" stroke-linejoin="round"/>
</svg>
