<svg width="104" height="104" viewBox="0 0 104 104" fill="none"
    xmlns="http://www.w3.org/2000/svg">
    <path d="M52 104C80.7188 104 104 80.7188 104 52C104 23.2812 80.7188 0 52 0C23.2812 0 0 23.2812 0 52C0 80.7188 23.2812 104 52 104Z" fill="#F5F5F5"/>
    <path d="M43.7799 52.0003C50.8823 52.0003 56.6399 46.2427 56.6399 39.1403C56.6399 32.0379 50.8823 26.2803 43.7799 26.2803C36.6775 26.2803 30.9199 32.0379 30.9199 39.1403C30.9199 46.2427 36.6775 52.0003 43.7799 52.0003Z" stroke="black" stroke-width="3" stroke-miterlimit="10" stroke-linecap="round" stroke-linejoin="round"/>
    <path d="M68.07 77.71V74.2C68.07 61.94 57.2 52 43.78 52C30.37 52 19.5 61.94 19.5 74.21V77.72" stroke="black" stroke-width="3" stroke-miterlimit="10" stroke-linecap="round" stroke-linejoin="round"/>
    <path d="M65.9299 32C71.4499 32 75.9299 36.48 75.9299 42C75.9299 47.52 71.4499 52 65.9299 52" stroke="black" stroke-width="3" stroke-miterlimit="10" stroke-linecap="round" stroke-linejoin="round"/>
    <path d="M84.4999 72V69.27C84.4999 59.73 76.1899 52 65.9299 52" stroke="black" stroke-width="3" stroke-miterlimit="10" stroke-linecap="round" stroke-linejoin="round"/>
</svg>
