<svg width="104" height="104" viewBox="0 0 104 104" fill="none"
    xmlns="http://www.w3.org/2000/svg">
    <path d="M52 104C80.7188 104 104 80.7188 104 52C104 23.2812 80.7188 0 52 0C23.2812 0 0 23.2812 0 52C0 80.7188 23.2812 104 52 104Z" fill="#F5F5F5"/>
    <path d="M70.06 45.03C70.06 51.94 67.26 58.2 62.73 62.73C58.2 67.26 51.94 70.06 45.03 70.06C38.12 70.06 31.86 67.26 27.33 62.73C22.8 58.2 20 51.94 20 45.03C20 38.12 22.8 31.86 27.33 27.33C31.86 22.8 38.12 20 45.03 20C51.94 20 58.2 22.8 62.73 27.33C67.26 31.86 70.06 38.12 70.06 45.03Z" stroke="black" stroke-width="3" stroke-miterlimit="10" stroke-linecap="round" stroke-linejoin="round"/>
    <path d="M84 84.0002L64.24 64.2402" stroke="black" stroke-width="3" stroke-miterlimit="10" stroke-linecap="round" stroke-linejoin="round"/>
    <path d="M64.2401 31.21L56.6801 55.13L47.3701 34.74L38.0601 55.13L31.2501 42.49L25.6401 49.28H20.6201" stroke="black" stroke-width="3" stroke-miterlimit="10" stroke-linecap="round" stroke-linejoin="round"/>
</svg>
