<svg width="20" height="20" viewBox="0 0 20 20" fill="none" xmlns="http://www.w3.org/2000/svg">
<path fill-rule="evenodd" clip-rule="evenodd" d="M19.6 10.227C19.6 9.51801 19.536 8.83701 19.418 8.18201H10V12.05H15.382C15.2706 12.6619 15.0363 13.2448 14.6932 13.7635C14.3501 14.2822 13.9054 14.726 13.386 15.068V17.578H16.618C18.509 15.836 19.6 13.273 19.6 10.228V10.227Z" fill="#4285F4"/>
<path fill-rule="evenodd" clip-rule="evenodd" d="M9.99996 20C12.7 20 14.964 19.105 16.618 17.577L13.386 15.068C12.491 15.668 11.346 16.023 9.99996 16.023C7.39496 16.023 5.18996 14.263 4.40496 11.9H1.06396V14.49C1.89597 16.1468 3.17234 17.5395 4.7504 18.5126C6.32846 19.4856 8.14603 20.0006 9.99996 20Z" fill="#34A853"/>
<path fill-rule="evenodd" clip-rule="evenodd" d="M4.405 11.9C4.205 11.3 4.091 10.66 4.091 10C4.091 9.34001 4.205 8.70001 4.405 8.10001V5.51001H1.064C0.364015 6.90321 -0.000359433 8.44084 2.66054e-07 10C2.66054e-07 11.614 0.386 13.14 1.064 14.49L4.404 11.9H4.405Z" fill="#FBBC05"/>
<path fill-rule="evenodd" clip-rule="evenodd" d="M9.99996 3.977C11.468 3.977 12.786 4.482 13.823 5.473L16.691 2.605C14.959 0.99 12.695 0 9.99996 0C6.08996 0 2.70996 2.24 1.06396 5.51L4.40396 8.1C5.19196 5.736 7.39596 3.977 9.99996 3.977Z" fill="#EA4335"/>
</svg>
